<?xml version="1.0" encoding="UTF-8" standalone="no"?>
<svg
   clip-rule="evenodd"
   fill-rule="evenodd"
   height="48"
   image-rendering="optimizeQuality"
   shape-rendering="geometricPrecision"
   text-rendering="geometricPrecision"
   viewBox="0 0 251.53689 251.53728"
   width="48"
   version="1.1"
   id="svg4"
   sodipodi:docname="favicon.svg"
   inkscape:version="1.3 (0e150ed6c4, 2023-07-21)"
   xml:space="preserve"
   inkscape:export-filename="favicon.png"
   inkscape:export-xdpi="96"
   inkscape:export-ydpi="96"
   xmlns:inkscape="http://www.inkscape.org/namespaces/inkscape"
   xmlns:sodipodi="http://sodipodi.sourceforge.net/DTD/sodipodi-0.dtd"
   xmlns="http://www.w3.org/2000/svg"
   xmlns:svg="http://www.w3.org/2000/svg"><defs
     id="defs4" /><sodipodi:namedview
     id="namedview4"
     pagecolor="#505050"
     bordercolor="#eeeeee"
     borderopacity="1"
     inkscape:showpageshadow="0"
     inkscape:pageopacity="0"
     inkscape:pagecheckerboard="0"
     inkscape:deskcolor="#505050"
     inkscape:zoom="11.2128"
     inkscape:cx="8.2940924"
     inkscape:cy="22.60809"
     inkscape:window-width="1920"
     inkscape:window-height="1017"
     inkscape:window-x="1016"
     inkscape:window-y="-8"
     inkscape:window-maximized="1"
     inkscape:current-layer="g4"
     showguides="true" /><linearGradient
     id="a"
     gradientUnits="userSpaceOnUse"
     x1="6550.4199"
     x2="6550.4199"
     y1="-12.51"
     y2="13100.61"><stop
       offset="0"
       stop-color="#61fd7d"
       id="stop1" /><stop
       offset="1"
       stop-color="#2bb826"
       id="stop2" /></linearGradient><g
     fill="#ffffff"
     id="g4"
     transform="matrix(0.11108164,0,0,0.11058474,-217.81688,-190.43788)"><rect
       style="fill:#25d366;fill-opacity:1;stroke-width:2.40254"
       id="rect1"
       width="2264.436"
       height="2274.6111"
       x="1960.8351"
       y="1722.0991"
       ry="225.04608" /><g
       id="g1"
       transform="matrix(0.17998176,0,0,0.17998176,1891.0711,1696.5651)"><path
         d="M 10021.26,3099.41 C 9134.31,2211.72 7954.77,1722.6 6698.04,1722.1 c -2589.39,0 -4696.83,2106.65 -4697.87,4696.06 -0.34,827.71 215.98,1635.68 627.09,2347.84 l -666.48,2433.65 2490.4,-653.05 c 686.18,374.12 1458.72,571.3 2244.99,571.63 h 1.94 c 2589.13,0 4696.77,-2106.91 4697.82,-4696.34 0.49,-1254.86 -487.7,-2434.81 -1374.67,-3322.5 v 0.01 z M 6698.1,10325.07 h -1.6 c -700.65,-0.27 -1387.85,-188.44 -1987.37,-544.09 l -142.59,-84.59 -1477.84,387.55 394.46,-1440.42 -92.86,-147.69 C 2999.44,7874.35 2793,7156.01 2793.31,6418.47 c 0.85,-2152.2 1752.49,-3903.19 3906.3,-3903.19 1042.91,0.4 2023.3,406.97 2760.52,1144.78 737.22,737.8 1142.98,1718.54 1142.59,2761.54 -0.84,2152.38 -1752.47,3903.47 -3904.62,3903.47 z"
         id="path3" /><path
         d="m 6636.3258,7254.3089 h -401.3696 v 689.1677 H 5509.3275 V 7254.3089 H 4083.7737 V 6694.236 L 5461.875,4978.2679 h 773.0812 v 1735.8289 h 401.3696 z M 5509.3275,6714.0968 v -1068.508 l -856.1231,1068.508 z m 3763.779,-1163.8395 h -919.3933 v 2385.275 h -759.2409 v -2385.275 h -919.3931 v -571.9894 h 2598.0273 z"
         id="text1"
         style="font-weight:bold;font-size:3782.53px;font-family:Verdana;-inkscape-font-specification:'Verdana Bold';letter-spacing:-189.126px;stroke-width:50.7296"
         aria-label="4T"
         sodipodi:nodetypes="ccccccccccccccccccccccccc" /></g></g></svg>
